<svg xmlns="http://www.w3.org/2000/svg" width="64" height="64" viewBox="0 0 64 64">
  <circle cx="32" cy="32" r="32" fill="#000" />
  <circle cx="32" cy="32" r="22.5" fill="#fff" />
  <circle cx="32" cy="32" r="20" fill="#000" />

  <g fill="none" stroke="#fff" stroke-linecap="round" stroke-linejoin="round" stroke-width="4.4">
    <path d="M26 14V23Q26 26 23 26H17" />
    <path d="M38 14V23Q38 26 41 26H47" />

    <g transform="rotate(120 32 32)">
      <path d="M26 14V23Q26 26 23 26H17" />
      <path d="M38 14V23Q38 26 41 26H47" />
    </g>

    <g transform="rotate(240 32 32)">
      <path d="M26 14V23Q26 26 23 26H17" />
      <path d="M38 14V23Q38 26 41 26H47" />
    </g>
  </g>

  <circle cx="32" cy="32" r="5.8" fill="#fff" />
  <circle cx="32" cy="32" r="3.4" fill="#000" />
</svg>
